<svg xmlns="http://www.w3.org/2000/svg" viewBox="0 0 201 201.05"><defs><style>.cls-1{fill:#fff;}</style></defs><title>算法 白</title><g id="图层_2" data-name="图层 2"><g id="图层_1-2" data-name="图层 1"><g id="算法_白" data-name="算法 白"><path class="cls-1" d="M97.69,201.05c-1.6,0-3.2,0-4.79-.13-28.69-1-56.36-16.4-74-41.21-1.8-2.51-3.49-5.1-5-7.71A96.93,96.93,0,0,1,3.34,126.32c-.73-2.79-1.35-5.61-1.83-8.38A101.49,101.49,0,0,1,0,100.5,99.41,99.41,0,0,1,11.05,54.65c1.4-2.74,2.95-5.44,4.6-8C29.5,22.09,55.11,4.79,82.46,1.5c2.93-.5,6-.89,9-1.14S97.48,0,100.5,0A100.45,100.45,0,0,1,201,100.5a100.22,100.22,0,0,1-5.86,33.9l0,.1a70.75,70.75,0,0,1-8.95,17c-19.48,27.36-46.43,45.17-73.92,48.84a99.67,99.67,0,0,1-11.73.68C99.57,201,98.63,201.05,97.69,201.05ZM100.11,1c-2.86,0-5.75.12-8.6.36s-6,.63-8.91,1.13C55.54,5.75,30.22,22.86,16.5,47.14c-1.64,2.58-3.17,5.26-4.56,8A98.41,98.41,0,0,0,1,100.5a100.51,100.51,0,0,0,1.49,17.27c.48,2.74,1.09,5.53,1.82,8.3a95.63,95.63,0,0,0,10.41,25.42c1.52,2.58,3.19,5.15,5,7.64,17.47,24.55,44.85,39.8,73.24,40.79,2.51.14,5,.17,7.54.08a99.58,99.58,0,0,0,11.62-.67C139.32,195.69,166,178,185.34,150.9a69.94,69.94,0,0,0,8.82-16.73l0-.11A99.59,99.59,0,0,0,112.1,1.67,101.64,101.64,0,0,0,100.49,1Z"/><path class="cls-1" d="M94.2,196.28q-1.26,0-2.46,0a84.33,84.33,0,0,1-29.1-5.84,92.62,92.62,0,0,1-41.18-32.59,80.83,80.83,0,0,1-5.13-8.32,87.24,87.24,0,0,1-9-27.76c-.53-3.43-.85-6.26-1-8.92a139.48,139.48,0,0,1,.19-15.24c0-1,.1-2,.15-3A97.62,97.62,0,0,1,17.88,53.31c1.24-2.36,2.64-4.66,4-6.9l.21-.35C35.63,23.87,58.17,8.22,82.4,4.2,85,3.76,87.75,3.3,90.54,3c2.61-.25,5.39-.39,8.24-.42a67.74,67.74,0,0,1,11.73,1c21.27,3.49,42.21,14.72,60.54,32.46C182.31,47,190,58.65,194.47,71.82a84.85,84.85,0,0,1,4.31,32.93h0a91.22,91.22,0,0,1-7.72,31.12l-.41-.07.37.16a68.35,68.35,0,0,1-9.55,15.09,138.93,138.93,0,0,1-25.55,24.16c-15.32,11.1-30.77,17.85-45.94,20.07a107.07,107.07,0,0,1-11,.91C97.25,196.25,95.68,196.28,94.2,196.28ZM99.33,3.4h-.55c-2.82,0-5.57.17-8.17.42-2.75.27-5.46.72-8.08,1.15-24,4-46.33,19.5-59.75,41.5l-.21.35c-1.36,2.22-2.76,4.52-4,6.85A97,97,0,0,0,7.46,94.62q-.08,1.48-.15,3a138.08,138.08,0,0,0-.19,15.16c.15,2.62.47,5.43,1,8.83A86.43,86.43,0,0,0,17,149.12a80.25,80.25,0,0,0,5.07,8.24,91.88,91.88,0,0,0,40.83,32.31,83.65,83.65,0,0,0,28.82,5.78c2.17.06,4.51,0,7.14-.06a105.43,105.43,0,0,0,11-.9c15-2.2,30.37-8.91,45.58-19.93a138.29,138.29,0,0,0,25.4-24,67.35,67.35,0,0,0,9.44-14.91l0-.09A90.34,90.34,0,0,0,198,104.69l.4,0-.4,0a83.64,83.64,0,0,0-4.27-32.61c-4.45-13-12.05-24.64-23.22-35.46C152.28,19,131.49,7.85,110.38,4.38A69.08,69.08,0,0,0,99.33,3.4Z"/><path class="cls-1" d="M91,191.59h-.42A76.91,76.91,0,0,1,63,186.5c-7.36-2.86-25.91-11.56-39-30.57A70.68,70.68,0,0,1,18.81,147a79.3,79.3,0,0,1-7.5-29.83c-.25-4-.22-7-.17-9.43.19-9.61.65-32.12,13.57-55.77,1.59-2.93,3-5.15,3.61-6.1l.24-.39C41.08,25.37,61.18,10.94,82.35,6.89c2.19-.42,4.74-.89,7.3-1.18,2.35-.27,4.78-.43,7.41-.49a49.3,49.3,0,0,1,11.73,1.29c19.06,4.07,39.25,15.64,60,34.37,12.7,11.46,20.29,22.27,24.6,35A73.39,73.39,0,0,1,196.56,109l-.3,0,.3,0A78.25,78.25,0,0,1,187,137.33l-.31-.07.26.15a66.08,66.08,0,0,1-10.14,13.19,148.45,148.45,0,0,1-25.43,21c-15.55,10.17-29.82,16.25-43.62,18.59a96.35,96.35,0,0,1-10.4,1.14C95,191.52,93,191.59,91,191.59Zm7-185.79-.87,0c-2.61.06-5,.22-7.35.48-2.54.29-5.08.76-7.26,1.18-21,4-41,18.35-53.39,38.32l-.24.39c-.6,1-2,3.16-3.6,6.07-12.85,23.52-13.3,45.93-13.49,55.49-.05,2.47-.08,5.44.17,9.38a78.7,78.7,0,0,0,7.44,29.6,70.71,70.71,0,0,0,5.17,8.86c13,18.87,31.42,27.51,38.74,30.35A76.34,76.34,0,0,0,90.57,191c2.07,0,4.28-.06,6.73-.22a97.58,97.58,0,0,0,10.34-1.13c13.71-2.33,27.91-8.38,43.39-18.5a148.18,148.18,0,0,0,25.33-20.95,66,66,0,0,0,10-13.08l.05-.08A78,78,0,0,0,196,108.9a72.79,72.79,0,0,0-3.14-32.79C188.56,63.44,181,52.71,168.4,41.32,147.72,22.66,127.62,11.15,108.66,7.1A50.77,50.77,0,0,0,97.94,5.8Z"/><path class="cls-1" d="M87.89,186.94a68.18,68.18,0,0,1-24.45-4.36C56.38,179.93,38.68,171.84,26.6,154a64.74,64.74,0,0,1-5.31-9.53c-4.17-9.37-6.18-20.09-6-31.88.06-3.4.28-5.88.66-9.95a144.32,144.32,0,0,1,3-20A118.67,118.67,0,0,1,31.53,50.63c.91-1.58,2.08-3.51,3.49-5.72C46.72,26.56,64,13.68,82.3,9.59c2.59-.58,4.58-1,6.47-1.21,2.08-.28,4.23-.46,6.57-.56a39.53,39.53,0,0,1,11.72,1.6c16.67,4.46,35.58,16,59.49,36.29,14.16,12,21.63,22,25.79,34.29,1.31,3.9,5.34,17.83,2,33.21a65.61,65.61,0,0,1-11.44,25.56l-.05.07a67.37,67.37,0,0,1-10.73,11.31,169.42,169.42,0,0,1-25.31,17.92c-15.87,9.24-29,14.68-41.31,17.12a96.23,96.23,0,0,1-9.75,1.37c-2.28.21-4.36.33-6.35.36ZM96.42,8.2l-1.06,0c-2.33.09-4.47.28-6.54.56C87,9,85,9.4,82.39,10,64.14,14.05,47,26.86,35.36,45.12c-1.41,2.21-2.58,4.13-3.48,5.71A117.87,117.87,0,0,0,19.35,82.77a141.7,141.7,0,0,0-3,19.94c-.38,4.07-.6,6.54-.66,9.92-.19,11.73,1.81,22.4,6,31.71a63.39,63.39,0,0,0,5.27,9.47c12,17.71,29.63,25.76,36.65,28.4a68.11,68.11,0,0,0,25.81,4.31c2,0,4-.15,6.33-.36a95.67,95.67,0,0,0,9.7-1.36c12.27-2.43,25.35-7.86,41.19-17.07a169.87,169.87,0,0,0,25.25-17.88,67.44,67.44,0,0,0,10.67-11.25l0,0A65.06,65.06,0,0,0,194,113.12h0c3.32-15.28-.69-29.12-2-33C187.83,67.87,180.39,58,166.29,46,142.43,25.75,123.57,14.25,107,9.81A40.68,40.68,0,0,0,96.42,8.2Z"/><path class="cls-1" d="M85,182.33a61.36,61.36,0,0,1-21.16-3.66c-6.71-2.42-23.52-9.85-34.65-26.52A59.26,59.26,0,0,1,23.78,142c-4.09-9.93-5.6-21.35-4.49-33.92.34-3.76.79-6.46,1.49-10.47a143,143,0,0,1,5.07-20.84A135,135,0,0,1,38.36,49.3c1-1.63,2-3.2,3.12-5,6.32-9.61,20-26.56,40.78-32.06,2-.54,3.88-.94,5.63-1.23a54.22,54.22,0,0,1,5.74-.62,31.64,31.64,0,0,1,11.69,1.9c13.6,4.45,30.69,15.52,59,38.22,13.68,11,22.47,20.07,27,33.54,1.32,4,5.27,18,.85,33.33h0a53.08,53.08,0,0,1-13.28,22.78l-.05.05a73.34,73.34,0,0,1-11.33,9.43,213.74,213.74,0,0,1-25.19,14.82c-12.41,6.33-25.72,12.6-39,15.65a88.52,88.52,0,0,1-9.09,1.59c-2.09.26-4,.43-5.94.52C87.14,182.31,86.06,182.33,85,182.33Zm9.9-171.74c-.42,0-.83,0-1.25,0a53.83,53.83,0,0,0-5.72.62,56.4,56.4,0,0,0-5.61,1.22C61.62,18,48,34.86,41.65,44.45c-1.16,1.75-2.15,3.33-3.12,4.95A135.14,135.14,0,0,0,26,76.85,142.42,142.42,0,0,0,21,97.66c-.7,4-1.15,6.71-1.49,10.46C18.38,120.66,19.89,132,24,142A59,59,0,0,0,29.34,152c11.1,16.63,27.87,24,34.56,26.45a61.71,61.71,0,0,0,24.32,3.58c1.9-.09,3.83-.26,5.91-.51a91.15,91.15,0,0,0,9.08-1.6c13.27-3,26.57-9.31,39-15.63a214.84,214.84,0,0,0,25.17-14.8,73.88,73.88,0,0,0,11.29-9.4l.05-.06a52.83,52.83,0,0,0,13.24-22.7l.1,0-.1,0c4.41-15.22.46-29.27-.85-33.21-4.47-13.42-13.25-22.42-26.9-33.45C135.91,28,118.83,17,105.25,12.52A33.51,33.51,0,0,0,94.89,10.59Z"/><path class="cls-1" d="M100.5,50.52a50,50,0,1,0,50,50A50,50,0,0,0,100.5,50.52Zm-.24,60H100c-1.82-.09-3.38-.14-4.77-.14H91.89c0,2,0,3.87.14,5.72v.26H88.59v-.26c.09-1.89.13-3.81.14-5.72H81.58a9.54,9.54,0,0,1-2.8,3.54,18.45,18.45,0,0,1-5.66,2.69l-.18.07-.11-.17a7.67,7.67,0,0,0-1.93-2.19l-.44-.35.55-.1a16.21,16.21,0,0,0,4.71-1.5,7.39,7.39,0,0,0,2.43-2h-4.3c-1.49,0-3.09,0-4.91.14h-.26v-2.78h.26c1.83.09,3.48.13,4.91.13h5A10.7,10.7,0,0,0,79,106H73.71l0-.26c.09-1.61.13-3.66.13-6.1s0-4.61-.13-6.23l0-.26h3.13l0-.22c-.25-1.07-.5-2.08-.75-3H73.86a21.2,21.2,0,0,1-2.22,3l-.13.16L71.33,93a10.92,10.92,0,0,0-2.73-1.17l-.44-.12.34-.3a28.72,28.72,0,0,0,2.7-2.84,24.9,24.9,0,0,0,2.69-4l.12-.22.22.13a11.3,11.3,0,0,0,2.86,1l.44.1-.32.32c-.54.54-1,1.07-1.48,1.57h4.49c1.15,0,2.49,0,4-.13l.26,0V90.1A21.94,21.94,0,0,0,86,88.18a13.69,13.69,0,0,0,1.83-3.46l.09-.23.23.08a24.37,24.37,0,0,0,3.29.92l.54.12-.44.33A7.45,7.45,0,0,0,90,87.48h5.1c1,0,2.27,0,3.83-.13l.27,0v2.79l-.27,0C97.6,90,96,90,94.17,90l1,2.09-.36,0a11.38,11.38,0,0,0-2.73.66l-.26.09-.07-.26c-.25-.91-.49-1.78-.74-2.61H88.2c-.69,1.11-1.34,2.1-1.93,3l-.14.19-.2-.12a8.67,8.67,0,0,0-2.58-1.17l-.44-.09.32-.33c.43-.42.83-.85,1.21-1.28l-.25,0C82.76,90,81.13,90,79.36,90c.17.58.4,1.31.7,2.2l.1.3-.32,0a9.94,9.94,0,0,0-2.71.65l-.13,0H95.09v.26C95,95,95,97.08,95,99.55s0,4.57.13,6.23V106h-3.2v1.89h3.34c1.42,0,3,0,4.77-.13h.26Zm21.61-2.71c-.64.94-1.49,2.13-2.54,3.53l-.18.24-.2-.23a4.71,4.71,0,0,0-2.53-1.38l-.44-.1.32-.32a36.76,36.76,0,0,0,2.57-2.9,30.68,30.68,0,0,0,3-4.9,39.29,39.29,0,0,0-3.77-6.35l-.2-.27.31-.11a19.79,19.79,0,0,0,2.49-1.19l.23-.12.11.23c1.09,2.11,1.87,3.56,2.36,4.41,1-3.32,1.57-5.72,1.82-7.13l.06-.34.31.17c1,.53,2,1,2.9,1.45l.28.12-.18.25a13.77,13.77,0,0,0-1.42,3.26c-.52,1.56-1.18,3.4-2,5.48,1,1.84,2.16,4,3.53,6.4l.16.28-.31.08a11.86,11.86,0,0,0-2.6,1l-.23.13L123.52,105C123,106.07,122.42,107,121.87,107.86Zm10.93-21a33.09,33.09,0,0,0-.27,4.87v21.12c0,1.54-.58,2.45-1.72,2.7s-2.41.47-4.07.74l-.23,0-.05-.23a8.2,8.2,0,0,0-1.29-2.83l-.28-.42.5,0a12.36,12.36,0,0,0,3.36-.12c.16-.06.63-.21.63-1.23V89.31H107.43v20.26a37.7,37.7,0,0,0,5-8.29,54.1,54.1,0,0,0-4.69-7.41l-.22-.26.31-.13c.82-.37,1.67-.72,2.53-1.07l.2-.08.11.19c.53,1,1.08,2,1.66,3h0c.48.85,1,1.69,1.49,2.51a53.38,53.38,0,0,0,1.7-6.74l0-.31.29.11c1,.36,2,.71,3.17,1.06l.37.11-.25.29a8.71,8.71,0,0,0-1.41,2.77c-.46,1.31-1.16,3.26-2.09,5.8.78,1.22,1.74,2.8,2.86,4.69l.13.21-.21.13a11,11,0,0,0-2.21,1.69l-.25.25-.16-.32c-.73-1.54-1.31-2.69-1.74-3.44a41.81,41.81,0,0,1-4.08,6.94l-.16.21-.2-.18A6.57,6.57,0,0,0,107.5,110l-.07,0v6.28H104l0-.28c.18-1.76.27-3.27.27-4.49V91.71c0-1.4-.09-3-.27-4.89l0-.27h28.85Z"/><rect class="cls-1" x="77.02" y="102.46" width="14.77" height="1.23"/><rect class="cls-1" x="77.02" y="99" width="14.77" height="1.09"/><path class="cls-1" d="M88.74,107.93V106H82.06a18.3,18.3,0,0,1-.1,1.89Z"/><rect class="cls-1" x="77.02" y="95.55" width="14.77" height="1.09"/></g></g></g></svg>